<svg width="63" height="16" viewBox="0 0 63 16" fill="none" xmlns="http://www.w3.org/2000/svg">
<path d="M4 4H0V16H4V4Z" fill="white"/>
<path d="M11.2 0H4V4H11.2V0Z" fill="white"/>
<path d="M58.4 8H54.4V16H58.4V8Z" fill="white"/>
<path d="M62.4 0H50.4V4H62.4V0Z" fill="white"/>
<path d="M47.2 0H38.4V4H47.2V0Z" fill="white"/>
<path d="M47.2 12H38.4V16H47.2V12Z" fill="white"/>
<path d="M38.4 4H34.4V12H38.4V4Z" fill="white"/>
<path d="M27.2 0H18.4V4H27.2V0Z" fill="white"/>
<path d="M27.2 12H18.4V16H27.2V12Z" fill="white"/>
<path d="M18.4 4H14.4V12H18.4V4Z" fill="white"/>
<path d="M31.2 4H27.2V12H31.2V4Z" fill="white"/>
</svg>
