<svg width="40" height="40" viewBox="0 0 40 40" fill="none" xmlns="http://www.w3.org/2000/svg">
<path d="M8.90491 3.30205V23.432L18.503 0C14.9699 0.259928 11.6919 1.43923 8.90491 3.30205Z" fill="white"/>
<path d="M16.5584 17.6559L8.52948 36.3274C10.8833 37.9784 13.6125 39.1336 16.5584 39.6487V17.6559Z" fill="white"/>
<path d="M28.1588 13.7088V7.64378C28.1588 5.6847 28.8471 3.97591 30.7196 3.05654C28.1925 1.44883 25.2755 0.394683 22.142 0.0577393V17.2322C22.142 17.2322 22.864 17.2226 24.4043 17.2226C25.9446 17.2226 28.1588 16.5487 28.1588 13.7088Z" fill="white"/>
<path d="M28.1107 31.0373V26.8977C28.1107 25.7425 28.1588 22.2286 24.2599 22.2286H22.142V39.8267C25.237 39.4946 28.1251 38.4597 30.6329 36.8809C28.929 35.6582 28.1107 35.1288 28.1107 31.0373Z" fill="white"/>
<path d="M35.586 7.41284C33.4537 7.41284 33.1649 7.88938 33.1649 9.76663C33.1649 11.6439 33.1649 10.8737 33.1649 12.7029C33.1649 14.8689 32.3947 17.9977 29.5547 19.3936C32.154 20.5488 33.1649 22.7149 33.1649 26.1806V29.6944C33.1649 31.3791 33.0686 32.8232 35.5427 32.5344C38.3297 29.0976 40 24.7173 40 19.9471C40 15.201 38.349 10.84 35.586 7.41284Z" fill="white"/>
<path d="M3.99519 7.9519C1.48736 11.2925 0 15.4465 0 19.9423C0 24.4381 1.48736 28.5969 3.99519 31.9375V7.9519Z" fill="white"/>
</svg>
